# xmcd
#
# Track frame offsets: 
#        150
#        15540
#        27697
#        43707
#        56030
#        69692
#        85365
#        98937
#        114902
#        132760
#
# Disc length: 1925 seconds
#
# Revision: 2
# Processed by: cddbd v1.5.2PL0 Copyright (c) Steve Scherf et al.
# Submitted via: ExactAudioCopy v1.1
#
DISCID=8707830a
DTITLE=David Allan Coe - Biggest Hits
DYEAR=1991
DGENRE=Country
TTITLE0=Now I Lay Me Down To Cheat
TTITLE1=(Sittin' On) The Dock Of The Bay
TTITLE2=Take Time To Know Her
TTITLE3=Hank Williams Junior
TTITLE4=London Homesick Blues
TTITLE5=Stand By Your Man
TTITLE6=Tennesse Whiskey
TTITLE7=Juanita
TTITLE8=Pledging My Love
TTITLE9=Would You Lay With Me (In A Field Of Stone)
EXTD=
EXTT0=
EXTT1=
EXTT2=
EXTT3=
EXTT4=
EXTT5=
EXTT6=
EXTT7=
EXTT8=
EXTT9=
PLAYORDER=
